<svg width="138" height="68" viewBox="0 0 138 68" fill="none" xmlns="http://www.w3.org/2000/svg">
<rect width="138" height="68" rx="34" fill="white"/>
<path d="M65.5886 1.08866e-05C55.1275 1.08852e-05 100.11 -1.36076e-05 90.6953 1.08866e-05C83.842 2.8716e-05 85.8573 5.8283 83.4267 9C82.5182 10.1856 80 11 78.142 11C76.2839 11 73.8432 10.1856 73.0263 9C70.841 5.8283 73.2033 1.08876e-05 65.5886 1.08866e-05Z" fill="#EDEEF1"/>
<path d="M90.4114 68C100.873 68 55.8897 68 65.3047 68C72.158 68 70.1427 62.1717 72.5733 59C73.4818 57.8144 76 57 77.858 57C79.7161 57 82.1568 57.8144 82.9737 59C85.159 62.1717 82.7967 68 90.4114 68Z" fill="#EDEEF1"/>
</svg>
